<?xml version="1.0" standalone="no"?>
<!DOCTYPE svg PUBLIC "-//W3C//DTD SVG 20010904//EN"
 "http://www.w3.org/TR/2001/REC-SVG-20010904/DTD/svg10.dtd">
<svg version="1.0" xmlns="http://www.w3.org/2000/svg"
 width="1024.000000pt" height="1024.000000pt" viewBox="0 0 1024.000000 1024.000000"
 preserveAspectRatio="xMidYMid meet">

<g transform="translate(0.000000,1024.000000) scale(0.100000,-0.100000)"
fill="#000000" stroke="none">
<path d="M4810 9358 c0 -30 -8 -40 -52 -66 l-36 -22 -21 26 c-12 15 -21 33
-21 40 0 18 -9 18 -29 0 -9 -7 -38 -21 -65 -31 -47 -18 -48 -19 -43 -54 3 -20
8 -44 12 -53 6 -16 1 -18 -38 -18 -40 0 -49 -5 -86 -45 -45 -48 -48 -60 -26
-89 19 -25 19 -63 0 -96 -8 -14 -14 -19 -15 -12 0 13 -57 17 -78 4 -15 -10
-32 -66 -32 -108 0 -27 5 -34 30 -43 26 -8 30 -15 30 -45 0 -30 -4 -37 -25
-42 -23 -6 -25 -11 -25 -63 0 -63 18 -98 53 -103 21 -3 22 -7 19 -69 -4 -81 5
-91 68 -79 25 5 63 9 86 10 22 0 43 3 47 6 3 3 -3 20 -13 37 -54 94 -74 308
-37 413 41 118 142 233 247 282 48 23 69 26 165 26 109 1 112 0 190 -38 100
-49 200 -147 244 -238 56 -117 66 -293 22 -409 -11 -29 -19 -54 -17 -56 1 -2
40 -8 85 -15 100 -14 109 -9 92 56 -17 68 -14 85 14 92 23 6 25 10 25 67 0 38
-5 66 -14 76 -27 30 -24 87 5 96 18 6 20 13 16 42 -3 19 -13 54 -22 77 -15 39
-18 42 -50 38 -27 -3 -36 1 -50 22 -12 18 -15 35 -11 54 18 73 18 78 -9 110
-23 27 -32 32 -59 27 -22 -4 -43 1 -71 18 -38 22 -40 26 -37 66 2 41 1 42 -40
60 -24 11 -58 22 -76 26 -29 6 -34 4 -39 -14 -6 -24 -24 -26 -89 -10 -38 10
-46 16 -51 40 l-5 29 -84 0 c-80 0 -84 -1 -84 -22z m-248 -255 c-67 -81 -100
-141 -139 -257 -30 -88 -38 -105 -41 -81 -6 51 18 147 56 220 41 77 118 165
146 165 14 0 9 -10 -22 -47z"/>
<path d="M3450 9304 c0 -3 39 -62 86 -131 97 -141 113 -173 106 -210 -11 -59
-105 -120 -214 -139 -45 -7 -43 -9 -162 170 -50 77 -96 139 -101 139 -6 0 -21
-27 -34 -59 -36 -85 -41 -237 -12 -314 26 -69 73 -121 141 -155 66 -33 123
-40 234 -26 162 20 277 94 339 220 28 57 32 78 35 159 4 88 2 97 -27 157 -62
126 -175 195 -316 195 -41 0 -75 -3 -75 -6z m-303 -386 c-3 -8 -6 -5 -6 6 -1
11 2 17 5 13 3 -3 4 -12 1 -19z m49 -162 c5 -13 4 -17 -4 -12 -13 8 -42 100
-41 130 0 12 9 -6 19 -39 10 -33 21 -69 26 -79z"/>
<path d="M6159 9285 c-121 -24 -213 -91 -266 -192 -52 -98 -57 -150 -32 -305
10 -64 66 -199 87 -212 6 -4 -12 -50 -46 -117 -46 -91 -53 -112 -41 -120 32
-20 54 -9 86 44 34 56 63 88 63 69 0 -12 -47 -101 -61 -117 -12 -12 -11 -25 1
-25 5 0 54 -25 107 -55 54 -30 103 -55 110 -55 7 0 26 26 42 58 l30 59 78 22
c192 55 202 60 263 123 88 90 111 127 120 200 5 35 16 81 24 103 17 46 20 77
7 91 -5 5 -14 42 -20 83 -17 108 -60 184 -136 239 -141 102 -275 136 -416 107z
m21 -92 c0 -5 -24 -21 -53 -37 -115 -64 -148 -104 -167 -205 -28 -151 79 -335
228 -391 103 -39 203 -12 301 81 81 77 96 119 93 263 -1 80 2 116 9 109 17
-17 27 -115 19 -176 -15 -104 -38 -154 -101 -222 -69 -73 -114 -95 -216 -102
-64 -5 -78 -3 -128 21 -77 38 -163 120 -190 181 -51 116 -57 233 -16 318 27
57 94 125 145 148 43 19 76 24 76 12z m192 -115 c63 -35 88 -78 83 -144 -10
-133 -103 -234 -202 -220 -93 12 -163 93 -163 185 0 65 18 100 72 144 87 70
133 78 210 35z m145 -260 c-3 -8 -6 -5 -6 6 -1 11 2 17 5 13 3 -3 4 -12 1 -19z
m-11 -55 c-4 -16 -20 -46 -37 -66 -30 -37 -115 -94 -125 -84 -3 2 15 16 39 31
53 30 91 73 108 121 15 40 24 39 15 -2z m-388 -302 c29 -12 69 -21 88 -21 49
0 34 -16 -22 -24 -40 -5 -50 -3 -76 19 -16 14 -33 25 -38 25 -4 0 -16 12 -25
28 -18 26 -18 27 1 10 10 -9 43 -26 72 -37z"/>
<path d="M5625 9145 c-29 -32 -31 -45 -10 -85 17 -34 43 -44 77 -31 74 28 65
117 -14 136 -22 6 -32 1 -53 -20z"/>
<path d="M4080 9122 c-35 -35 -38 -60 -10 -89 41 -45 100 -41 125 7 8 16 15
35 15 42 -1 25 -35 58 -67 64 -27 5 -37 1 -63 -24z"/>
<path d="M4839 9120 c-15 -4 -56 -24 -92 -44 -106 -59 -167 -141 -207 -274
-20 -67 -21 -81 -12 -157 15 -114 76 -235 118 -235 20 0 18 11 -20 92 -40 86
-60 184 -51 248 4 25 27 82 51 127 38 70 54 89 103 123 33 21 87 49 122 61 55
19 69 20 106 11 24 -7 51 -12 61 -12 38 0 139 -59 185 -109 115 -123 144 -306
78 -482 l-20 -50 22 3 c39 5 80 105 85 204 10 192 -55 325 -213 434 -88 60
-227 87 -316 60z"/>
<path d="M4898 9039 c-12 -7 -18 -22 -18 -49 0 -33 -4 -41 -24 -46 -13 -3 -41
-1 -62 5 -44 12 -71 0 -101 -46 -15 -23 -18 -46 -15 -135 2 -86 -1 -113 -14
-133 -15 -23 -14 -28 37 -116 l52 -92 203 6 c111 3 207 8 213 11 5 4 19 31 30
62 18 46 20 68 15 140 -7 81 -6 85 14 91 35 9 27 47 -20 95 -28 29 -41 51 -39
66 3 26 -48 82 -75 82 -10 0 -25 -7 -34 -15 -13 -12 -28 -14 -58 -9 -23 4 -39
11 -36 16 3 5 3 25 0 44 -6 27 -12 34 -29 34 -12 0 -30 -5 -39 -11z m120 -239
c40 -25 72 -75 72 -115 -1 -41 -34 -110 -62 -128 -43 -28 -85 -30 -131 -8
-103 50 -119 198 -28 254 36 23 109 21 149 -3z"/>
<path d="M7468 8861 c-166 -53 -251 -160 -272 -341 -16 -138 -62 -207 -283
-425 -95 -93 -173 -174 -173 -180 0 -5 12 -18 25 -28 25 -18 26 -18 54 3 17
11 111 104 210 207 100 103 183 184 187 181 16 -17 -24 -63 -267 -314 l-137
-141 24 -84 c25 -84 34 -105 34 -77 0 19 363 380 421 419 24 16 48 29 53 29 5
0 -103 -111 -240 -247 l-248 -248 -1 -47 c0 -25 4 -50 8 -55 5 -4 120 105 255
244 136 138 268 267 293 287 25 20 70 42 100 50 31 8 48 16 39 20 -8 3 -42 15
-75 27 -78 29 -145 78 -173 128 -50 89 -51 269 -2 376 24 53 38 54 21 2 -34
-103 -31 -234 8 -322 26 -59 91 -118 177 -159 40 -20 75 -40 78 -44 3 -5 34
-5 70 -1 114 11 205 73 259 176 36 71 57 148 57 211 0 47 -10 82 -22 82 -5 0
-61 -47 -123 -105 -104 -95 -118 -105 -153 -105 -70 0 -153 68 -180 149 -24
69 -20 76 110 203 87 85 118 122 110 130 -19 19 -181 19 -244 -1z"/>
<path d="M4054 8735 c-32 -32 -31 -70 2 -100 33 -30 44 -31 78 -4 44 35 30 96
-28 119 -23 8 -31 6 -52 -15z"/>
<path d="M3801 8695 c-51 -75 -155 -134 -249 -141 -122 -10 -121 -8 -63 -60
56 -50 120 -144 176 -254 21 -41 38 -76 40 -78 1 -1 16 5 33 15 39 22 40 20
-54 192 -65 118 -70 131 -41 103 18 -17 61 -84 96 -147 35 -63 65 -115 68
-115 8 0 123 61 123 65 0 3 -27 61 -60 128 -33 68 -60 130 -60 138 0 20 78
-114 111 -191 15 -36 33 -65 38 -64 6 1 22 2 36 3 14 0 28 7 31 15 3 8 -28 81
-69 163 -40 81 -84 174 -96 206 -13 31 -26 57 -30 57 -3 0 -17 -16 -30 -35z"/>
<path d="M5251 8714 c0 -11 3 -14 6 -6 3 7 2 16 -1 19 -3 4 -6 -2 -5 -13z"/>
<path d="M6910 8677 c-51 -26 -61 -93 -18 -129 47 -40 128 -5 128 56 0 30 -30
76 -50 76 -4 0 -14 2 -22 5 -7 3 -24 -1 -38 -8z"/>
<path d="M2862 8607 c-27 -29 -29 -78 -4 -100 28 -25 84 -22 116 8 31 29 33
53 5 89 -27 35 -86 36 -117 3z"/>
<path d="M5697 8612 c-37 -40 -6 -112 48 -112 32 0 59 40 50 72 -17 56 -66 75
-98 40z"/>
<path d="M2227 8607 c-26 -6 -46 -15 -44 -21 2 -6 59 -53 128 -105 96 -72 126
-101 133 -125 11 -41 -7 -106 -41 -147 -34 -40 -125 -99 -153 -99 -12 0 -52
18 -88 39 -61 35 -102 55 -171 82 -23 9 -23 9 -16 -38 22 -148 125 -283 239
-314 62 -17 150 -14 193 6 63 30 151 93 176 128 55 72 128 262 111 288 -3 5
-1 9 4 9 14 0 -26 127 -53 170 -35 55 -103 109 -159 125 -56 17 -186 18 -259
2z"/>
<path d="M3095 8426 c-38 -17 -80 -62 -94 -99 -16 -41 -13 -122 5 -165 61
-146 271 -161 350 -25 52 88 24 206 -64 267 -34 24 -55 31 -105 33 -38 2 -73
-2 -92 -11z m140 -106 c58 -36 64 -102 14 -145 -88 -74 -200 17 -142 115 30
51 76 62 128 30z"/>
<path d="M6692 8335 c-50 -36 -48 -79 6 -137 34 -36 64 -35 96 3 29 34 35 93
14 122 -19 25 -88 32 -116 12z"/>
<path d="M4970 8324 c-486 -29 -481 -28 -705 -79 -185 -43 -187 -43 -313 -94
-95 -38 -140 -60 -292 -144 -49 -27 -192 -124 -260 -176 -16 -13 -94 -34 -225
-61 -426 -89 -647 -165 -779 -267 -90 -69 -112 -145 -127 -437 l-11 -209 23
-18 c13 -9 50 -22 84 -29 33 -6 69 -13 80 -15 11 -2 29 -19 39 -37 39 -67 89
-118 140 -143 109 -53 292 -55 401 -4 28 13 76 50 111 85 l60 62 196 3 196 3
37 -36 c21 -20 61 -49 89 -65 49 -27 58 -28 203 -31 175 -4 261 6 338 42 67
30 157 118 176 169 l13 38 372 -2 c335 -2 374 0 405 15 29 15 80 19 323 26
l288 9 67 -68 c73 -75 100 -92 180 -111 66 -15 223 -8 296 14 109 33 186 109
215 212 11 38 16 42 66 58 77 24 103 62 117 168 7 61 7 97 -2 141 -7 32 -18
131 -26 220 -19 232 -31 254 -148 283 -89 21 -141 43 -211 88 -31 20 -79 47
-108 62 -29 15 -78 43 -108 64 -253 170 -560 252 -985 263 -88 2 -185 2 -215
1z m489 -99 c274 -28 475 -96 643 -220 56 -40 87 -72 112 -114 20 -32 36 -63
36 -67 0 -5 25 -10 56 -10 l55 -2 -32 22 c-45 29 -126 105 -113 106 6 0 64
-33 130 -74 92 -57 138 -79 198 -95 44 -11 85 -26 91 -33 18 -18 45 -106 45
-142 l0 -31 -21 40 c-64 122 -89 134 -270 142 l-139 6 -2 -94 -2 -94 -3 86 -4
87 -160 7 c-87 4 -245 4 -349 0 l-190 -7 0 -83 c0 -45 -3 -150 -7 -234 l-6
-152 54 6 c30 2 108 10 174 16 137 12 163 21 225 77 25 22 47 39 49 37 9 -10
-93 -124 -124 -139 -19 -9 -86 -23 -148 -31 -175 -23 -247 -36 -247 -46 0 -4
-6 -6 -13 -3 -7 2 -116 0 -243 -6 -372 -17 -622 -22 -598 -11 41 18 350 56
654 81 74 6 142 13 151 16 12 3 19 26 28 92 13 105 14 341 2 361 -8 12 -68 13
-383 7 -205 -3 -406 -9 -445 -12 l-73 -7 -2 -56 -1 -56 -6 55 -6 55 -90 -2
c-204 -6 -506 -52 -725 -112 -103 -28 -190 -45 -300 -56 -138 -14 -316 -38
-392 -52 -16 -3 -28 -1 -28 4 0 12 154 57 270 78 47 9 130 27 185 40 284 68
460 100 735 135 288 36 293 37 286 49 -3 5 -25 7 -48 5 -24 -2 -139 -9 -256
-14 -117 -5 -257 -16 -310 -25 -53 -8 -182 -26 -287 -40 -247 -34 -696 -124
-855 -171 -69 -20 -134 -39 -144 -42 -27 -7 -12 15 22 32 35 18 272 104 303
110 13 2 96 20 184 40 427 94 628 118 1208 144 l168 8 131 138 c72 75 152 153
177 173 l46 35 -145 -5 c-172 -6 -327 -32 -540 -92 -169 -47 -245 -78 -449
-179 -73 -36 -140 -66 -147 -66 -27 0 -13 20 34 46 26 15 72 44 102 65 173
115 478 223 751 264 53 8 159 18 235 21 77 4 141 9 144 12 9 9 473 -8 619 -23z
m721 -553 c0 -19 -27 -32 -66 -32 -45 0 -80 24 -47 33 31 8 113 7 113 -1z
m-740 -27 c0 -8 -13 -21 -30 -30 -28 -14 -33 -14 -72 7 l-43 22 35 7 c67 12
110 10 110 -6z m-1251 -56 c110 -25 227 -110 280 -203 41 -71 63 -160 59 -242
-4 -97 -24 -93 -31 6 -7 102 -46 190 -115 259 -111 111 -258 140 -389 76 -134
-66 -225 -215 -248 -410 -9 -70 -16 -86 -26 -59 -21 53 2 243 39 327 83 187
257 287 431 246z m2257 -52 c111 -56 194 -203 194 -342 0 -57 -16 -40 -29 33
-32 172 -124 267 -258 265 -75 -1 -127 -28 -192 -98 -49 -54 -70 -98 -101
-220 -12 -49 -26 -97 -31 -106 -7 -13 -37 -17 -171 -22 -90 -4 -248 -11 -353
-16 -241 -13 -811 -23 -803 -16 20 20 548 52 1015 62 249 5 283 8 288 22 2 9
12 54 20 100 20 105 56 201 94 253 33 45 97 95 138 109 47 14 135 3 189 -24z
m-2788 -45 c-102 -132 -117 -139 -323 -158 -182 -16 -195 -17 -175 -5 21 12
116 29 208 37 42 4 88 11 102 15 25 9 -69 6 -241 -7 l-86 -7 -26 44 -27 44
143 7 c136 6 329 29 392 47 38 10 50 4 33 -17z m-705 -43 c28 -13 47 -48 47
-85 0 -36 -53 -191 -90 -264 -20 -39 -40 -64 -55 -70 -32 -12 -464 -15 -476
-3 -5 5 -14 35 -20 67 -16 86 10 270 44 313 23 31 163 49 394 52 79 0 142 -3
156 -10z m1272 -79 c114 -54 175 -177 161 -322 -16 -178 -117 -297 -250 -298
-196 -1 -319 282 -216 495 28 58 91 122 132 134 55 16 130 12 173 -9z m2180
-4 c92 -42 122 -97 132 -243 5 -76 4 -85 -25 -147 -25 -53 -40 -72 -79 -97
-40 -26 -55 -30 -93 -26 -39 4 -52 12 -95 59 -58 62 -75 107 -75 201 0 126 53
235 130 266 37 15 50 13 105 -13z m-2845 -47 c-21 -13 -74 -27 -250 -64 -204
-44 -248 -50 -234 -36 15 16 173 55 324 81 67 12 132 25 144 30 25 9 36 3 16
-11z m-92 -193 c74 -67 66 -170 -11 -151 -13 4 -113 1 -224 -5 -110 -6 -208
-8 -217 -4 -27 10 -17 63 26 126 22 32 72 44 233 57 130 10 162 6 193 -23z
m-613 -176 c-9 -14 -73 -30 -130 -31 l-50 -2 40 -7 c43 -7 82 -7 596 5 237 6
338 5 343 -3 3 -6 -5 -13 -21 -16 -59 -11 -656 -28 -818 -23 -210 7 -465 28
-465 39 0 4 1 8 3 8 1 0 28 4 60 10 32 5 122 10 200 11 78 1 162 5 187 9 25 4
49 8 53 9 5 0 6 -3 2 -9z"/>
<path d="M4995 8199 c-49 -17 -110 -43 -135 -59 -72 -46 -221 -225 -260 -311
l-19 -44 82 -5 c47 -3 91 -11 104 -20 20 -13 25 -12 51 7 35 26 199 43 437 44
88 0 172 3 188 6 27 5 27 6 21 56 -9 75 -54 257 -72 292 -22 43 -26 18 -13
-90 13 -110 14 -234 1 -195 -4 14 -13 72 -19 129 -18 152 -17 151 -96 151 -36
0 -65 -3 -65 -7 0 -5 -22 -8 -48 -9 -93 -2 -256 -68 -358 -145 -58 -43 -65
-47 -49 -22 46 72 133 136 247 182 40 16 93 39 118 50 l45 21 -35 0 c-19 0
-75 -14 -125 -31z m242 -55 c-3 -3 -12 -4 -19 -1 -8 3 -5 6 6 6 11 1 17 -2 13
-5z m-60 -10 c-3 -3 -12 -4 -19 -1 -8 3 -5 6 6 6 11 1 17 -2 13 -5z m-184
-195 c45 -12 50 -40 11 -66 -20 -13 -52 -18 -123 -20 -64 -1 -86 1 -66 6 17 5
50 9 75 10 25 1 52 6 60 12 17 12 -117 4 -185 -12 -22 -4 -51 -9 -63 -9 l-24
0 19 33 c14 24 30 35 63 44 57 15 184 16 233 2z"/>
<path d="M5473 8124 c3 -16 17 -91 29 -166 l23 -137 325 6 c179 3 326 6 327 7
10 7 -101 125 -155 164 -135 101 -250 140 -436 149 l-119 6 6 -29z"/>
<path d="M2570 7405 c-63 -7 -123 -16 -132 -20 -23 -9 -38 -60 -48 -162 -8
-87 0 -143 23 -160 7 -6 99 -8 220 -5 l208 4 39 82 c47 99 75 195 66 230 -4
16 -17 31 -32 36 -34 13 -203 11 -344 -5z m324 -74 c9 -14 -27 -19 -174 -25
-74 -4 -170 -9 -214 -12 -104 -7 -92 10 16 25 133 18 364 25 372 12z m-14 -80
c0 -5 -13 -14 -30 -21 -16 -7 -30 -19 -30 -26 0 -10 -18 -14 -67 -16 l-68 -2
82 -5 82 -6 -19 -25 c-16 -21 -29 -25 -102 -31 -46 -4 -119 -7 -163 -7 l-80 0
65 13 65 13 -55 1 c-91 3 -135 14 -134 34 1 9 -2 17 -7 17 -19 0 -8 28 14 33
21 5 243 24 367 30 30 2 61 4 68 5 6 1 12 -2 12 -7z"/>
<path d="M4032 7309 c-63 -46 -92 -102 -92 -179 l0 -62 58 7 c71 9 75 11 67
43 -5 22 -4 24 9 13 12 -10 16 -9 25 6 8 16 15 118 12 186 -1 26 -32 21 -79
-14z"/>
<path d="M4165 7253 c-4 -43 -9 -86 -11 -95 -3 -9 7 -30 23 -48 25 -27 35 -31
88 -33 l60 -2 3 42 c4 54 -32 126 -87 176 -60 55 -68 50 -76 -40z"/>
<path d="M4104 7094 c-22 -32 -9 -58 29 -62 21 -3 28 2 33 22 7 29 1 42 -26
56 -16 8 -22 6 -36 -16z"/>
<path d="M3990 7026 c-43 -12 -45 -14 -42 -46 5 -43 23 -78 56 -109 22 -20 26
-22 26 -7 0 16 37 92 62 128 10 14 9 20 -7 32 -23 18 -35 18 -95 2z"/>
<path d="M4170 7018 c0 -13 20 -53 44 -91 l44 -67 26 31 c22 26 39 76 37 114
0 11 -83 35 -123 35 -22 0 -28 -5 -28 -22z"/>
<path d="M4089 6904 c-35 -75 -35 -75 -15 -90 39 -27 126 -12 126 21 0 22 -45
118 -61 132 -13 10 -21 0 -50 -63z"/>
<path d="M6315 7338 c-11 -6 -30 -23 -43 -39 l-23 -28 42 -46 c23 -25 45 -45
50 -45 11 0 12 140 1 156 -5 8 -14 8 -27 2z"/>
<path d="M6388 7253 c-4 -59 -9 -79 -24 -90 -32 -23 -56 -11 -88 44 -36 63
-49 58 -66 -24 -16 -73 0 -163 35 -209 15 -19 29 -32 33 -30 4 2 18 36 32 75
19 57 28 71 45 71 42 0 72 -100 45 -151 -15 -28 2 -23 32 9 39 42 48 66 48
131 l0 59 -27 -13 c-55 -26 -71 -27 -82 -6 -10 18 -6 20 49 26 l60 7 0 44 c0
55 -19 94 -58 116 l-29 18 -5 -77z m-68 -138 c0 -8 -12 -17 -27 -21 -16 -3
-34 -7 -40 -10 -16 -4 -17 18 -1 34 17 17 68 15 68 -3z"/>
<path d="M6340 7023 c-6 -16 -18 -44 -26 -65 -18 -40 -13 -58 16 -58 27 0 50
38 50 81 0 69 -22 92 -40 42z"/>
<path d="M3201 7109 c-108 -10 -138 -23 -146 -61 -4 -16 -5 -32 -2 -34 3 -3
40 -1 82 5 83 12 283 15 309 5 9 -3 16 -14 16 -23 0 -14 2 -14 10 -1 17 27 11
70 -15 95 -21 22 -32 25 -97 24 -40 -1 -111 -5 -157 -10z"/>
<path d="M2701 8178 c-28 -143 -86 -222 -200 -273 -33 -15 -61 -30 -61 -34 0
-3 22 -16 48 -28 26 -12 72 -38 103 -58 55 -35 58 -36 99 -24 l42 13 -64 57
c-94 86 -47 73 81 -22 l30 -22 75 21 c41 12 81 22 90 22 30 0 25 18 -12 42
-66 44 -180 139 -186 155 -5 13 -2 13 21 -2 56 -36 169 -124 196 -153 26 -27
31 -29 69 -20 78 17 78 16 -101 161 -94 76 -133 115 -164 163 -22 35 -44 64
-48 64 -3 0 -12 -28 -18 -62z"/>
<path d="M6555 8190 c-57 -22 -56 -89 1 -122 35 -20 59 -16 75 13 13 26 -6 96
-31 109 -21 11 -18 11 -45 0z"/>
<path d="M7412 7858 c-21 -21 -14 -65 14 -87 33 -26 46 -26 67 -3 21 23 22 66
1 86 -18 19 -65 21 -82 4z"/>
<path d="M7770 7855 c-14 -8 -53 -14 -91 -15 -39 0 -73 -6 -84 -14 -18 -13
-18 -14 2 -24 23 -12 234 -19 252 -8 28 17 -1 76 -37 76 -9 -1 -28 -7 -42 -15z"/>
<path d="M8019 7792 c-76 -49 -106 -118 -88 -204 25 -116 140 -180 261 -144
86 25 128 83 128 174 -1 92 -35 151 -105 183 -63 29 -141 25 -196 -9z m154
-71 c26 -10 57 -65 57 -101 0 -31 -62 -90 -94 -90 -39 0 -76 21 -92 51 -45 89
35 176 129 140z"/>
<path d="M2236 7668 c-22 -32 -20 -61 7 -86 13 -12 26 -22 30 -22 13 0 77 62
77 75 0 20 -49 55 -76 55 -12 0 -30 -10 -38 -22z"/>
<path d="M1845 7656 c-71 -32 -105 -92 -105 -184 0 -86 30 -139 99 -174 64
-33 127 -36 187 -9 141 64 148 291 11 359 -51 26 -144 29 -192 8z m135 -91
c61 -31 78 -112 34 -164 -35 -42 -82 -50 -129 -21 -57 35 -70 82 -40 140 30
57 79 74 135 45z"/>
<path d="M7378 7568 c-5 -40 -56 -48 -100 -16 -12 9 -25 9 -57 -1 -39 -11 -41
-14 -41 -52 l0 -40 -47 7 c-89 11 -151 -59 -105 -117 l20 -24 44 41 c51 47
177 103 257 114 67 9 198 1 179 -11 -7 -5 -35 -9 -63 -9 -190 -2 -377 -120
-458 -290 -27 -57 -32 -78 -35 -165 -8 -214 74 -333 308 -448 41 -20 58 -33
47 -35 -30 -6 -163 64 -214 112 -27 24 -75 80 -108 124 l-60 81 -23 -22 c-19
-18 -23 -29 -19 -60 8 -57 23 -70 78 -65 l47 5 -10 -27 c-21 -62 61 -195 94
-149 8 11 9 11 5 -3 -4 -12 8 -25 42 -47 56 -37 61 -37 84 -11 26 31 44 24 64
-22 7 -16 19 -28 27 -28 8 0 31 -9 50 -21 l35 -20 42 30 c42 31 59 32 59 4 0
-13 8 -14 48 -8 53 7 92 29 92 50 0 19 36 39 45 24 9 -13 64 -2 87 18 9 8 18
27 20 42 3 23 8 26 46 29 45 3 48 9 43 75 -2 23 3 30 36 43 48 20 51 26 45 80
-4 36 -2 44 11 44 22 0 37 31 37 74 0 28 -5 38 -26 49 l-25 13 26 12 c25 11
26 15 23 79 -3 66 -4 68 -31 71 -24 3 -27 6 -20 25 4 12 8 42 8 66 -1 38 -5
48 -38 75 -20 17 -37 39 -37 49 0 33 -21 58 -63 76 -35 15 -41 22 -42 47 0 39
-43 61 -85 44 -36 -15 -50 -7 -50 29 0 37 -14 47 -77 55 -47 6 -53 5 -53 -12
0 -10 -3 -22 -6 -25 -12 -11 -42 12 -48 38 -6 22 -11 25 -55 25 -44 0 -50 -3
-53 -22z m226 -222 c85 -42 188 -146 210 -213 43 -130 39 -238 -12 -347 -38
-81 -93 -135 -182 -180 -66 -33 -80 -36 -155 -36 -99 0 -145 15 -227 72 -71
50 -136 137 -168 225 -28 79 -25 202 7 273 29 63 98 145 155 181 72 47 121 59
223 56 76 -2 99 -6 149 -31z"/>
<path d="M7333 7339 c-59 -18 -156 -92 -195 -149 -48 -72 -61 -121 -56 -222 4
-107 30 -161 119 -251 89 -89 137 -110 250 -110 75 0 95 4 145 28 33 16 85 54
116 85 74 74 102 157 96 283 -6 145 -71 241 -207 309 -54 27 -76 32 -150 35
-47 1 -100 -2 -118 -8z m232 -67 c162 -64 236 -215 191 -391 -28 -108 -73
-155 -191 -202 -66 -26 -89 -30 -136 -26 -131 12 -250 107 -289 233 -11 36
-20 81 -20 98 0 45 27 132 53 172 32 48 146 119 222 138 32 7 126 -5 170 -22z"/>
<path d="M7398 7252 c-24 -3 -28 -8 -28 -35 0 -54 -35 -79 -63 -46 -21 24 -39
24 -66 2 -30 -26 -32 -67 -3 -71 12 -2 22 -7 22 -11 0 -12 -26 -32 -33 -25
-13 13 -46 -9 -56 -37 -14 -41 27 -175 65 -210 l26 -24 -7 25 c-7 23 -7 24 11
10 50 -38 62 -52 57 -71 -7 -27 23 -57 64 -65 43 -8 50 -1 30 30 l-16 24 57 4
c46 4 60 1 74 -14 24 -26 44 -22 58 11 6 16 20 37 31 47 11 10 21 37 25 64 6
44 9 49 45 63 35 14 39 19 39 51 0 19 -5 47 -10 61 -9 24 -14 26 -43 21 -58
-10 -69 10 -32 60 14 19 14 23 -2 42 -10 12 -30 24 -45 28 -24 5 -28 3 -28
-15 0 -29 -12 -26 -43 9 -23 26 -25 30 -10 38 13 8 13 11 2 18 -18 11 -87 20
-121 16z m99 -172 c41 -25 56 -53 55 -107 -1 -54 -14 -79 -52 -98 -108 -56
-221 57 -165 165 30 58 104 76 162 40z m-266 -180 c10 -6 19 -17 19 -25 0 -23
-16 -18 -34 10 -18 27 -15 30 15 15z"/>
<path d="M8652 7574 c-97 -22 -182 -86 -224 -168 -17 -32 -22 -62 -24 -138 -2
-70 -8 -109 -22 -140 -10 -24 -83 -124 -161 -222 -78 -99 -150 -195 -161 -215
-10 -20 -48 -78 -84 -129 -78 -108 -114 -181 -94 -194 7 -4 21 -8 31 -8 10 0
38 -13 62 -30 24 -16 48 -30 53 -30 16 0 157 155 190 211 45 74 239 296 282
322 31 19 28 14 -27 -48 -113 -128 -185 -219 -238 -300 -29 -44 -60 -86 -69
-94 -9 -8 -22 -23 -27 -34 -18 -32 100 54 163 119 31 33 95 106 143 164 114
137 170 195 224 233 39 27 42 31 25 38 -10 4 -36 8 -57 8 -75 2 -167 73 -167
129 l0 27 28 -32 c44 -52 93 -83 129 -83 19 0 51 -9 73 -20 118 -60 295 27
348 171 25 69 37 165 24 199 -9 25 -11 23 -104 -67 -89 -88 -97 -93 -137 -93
-23 0 -55 7 -70 15 -61 31 -111 124 -97 177 5 21 88 131 142 189 20 21 22 28
12 36 -19 16 -113 20 -166 7z m-84 -141 c-80 -86 -86 -215 -17 -362 l30 -65
-26 24 c-14 13 -37 48 -52 78 -48 99 -30 248 39 319 39 40 63 45 26 6z m-169
-470 c-13 -21 -40 -56 -60 -78 -31 -34 -136 -177 -295 -400 -23 -33 -56 -76
-73 -95 -30 -34 -30 -35 -31 -10 0 31 19 63 105 170 37 47 86 112 108 145 78
116 254 321 265 310 2 -2 -6 -21 -19 -42z"/>
<path d="M6929 7303 c-9 -18 -14 -55 -13 -115 2 -78 0 -88 -16 -88 -30 0 -38
-22 -39 -110 -1 -124 4 -140 42 -140 l32 0 0 123 c1 140 11 181 93 350 2 4
-16 7 -40 7 -38 0 -47 -4 -59 -27z"/>
<path d="M8160 7300 c-44 -44 -8 -124 48 -104 56 20 59 88 5 113 -31 14 -30
14 -53 -9z"/>
<path d="M1290 7222 c-30 -10 -54 -21 -53 -25 6 -23 48 -60 129 -115 114 -76
134 -100 134 -161 0 -62 -34 -118 -94 -159 -70 -47 -85 -48 -158 -14 -63 30
-159 62 -186 62 -22 0 -8 -54 29 -111 38 -60 146 -162 202 -191 32 -17 57 -22
107 -21 36 1 72 4 80 5 30 7 130 81 160 118 46 58 90 160 102 237 6 37 14 72
18 76 11 12 -12 103 -38 153 -26 51 -91 110 -151 137 -64 29 -205 34 -281 9z"/>
<path d="M2004 7042 c-26 -17 -36 -52 -24 -88 17 -49 52 -64 88 -37 46 34 42
92 -8 118 -33 17 -40 18 -56 7z"/>
<path d="M1770 6836 c0 -73 -32 -173 -72 -220 -17 -21 -58 -56 -90 -76 l-59
-37 62 -23 c90 -32 256 -138 505 -321 119 -87 131 -101 144 -165 23 -107 96
-168 217 -180 55 -5 59 -3 77 22 l19 27 -55 52 c-85 79 -94 141 -31 207 37 39
74 44 120 18 48 -27 75 -63 83 -109 3 -20 10 -35 15 -35 6 1 21 27 34 58 22
51 23 59 11 101 -26 93 -135 175 -237 179 -34 2 -56 13 -125 66 -45 35 -156
120 -244 187 -89 68 -200 159 -247 202 -47 44 -94 84 -106 90 -20 11 -21 9
-21 -43z m138 -176 c182 -126 345 -254 392 -306 27 -30 -60 28 -175 116 -33
26 -85 63 -115 83 -59 39 -180 146 -167 147 4 0 34 -18 65 -40z m-58 -183
c211 -139 427 -303 416 -315 -10 -9 -526 354 -526 370 0 16 16 8 110 -55z
m626 -172 c14 -13 12 -15 -15 -15 -34 0 -109 -53 -128 -90 -11 -23 -10 -163 3
-220 4 -21 3 -23 -8 -12 -8 8 -15 51 -18 120 -5 102 -4 108 20 144 15 21 46
49 70 63 54 29 57 29 76 10z"/>
<path d="M6650 6855 c-5 -14 -30 -47 -55 -74 l-46 -49 57 -88 c32 -49 83 -117
113 -150 68 -75 181 -260 181 -296 0 -14 -6 -31 -13 -37 -15 -12 -44 22 -103
124 -41 71 -170 249 -237 327 -26 30 -47 60 -47 65 0 6 -27 0 -61 -14 -34 -14
-85 -27 -115 -30 -30 -3 -54 -9 -54 -12 1 -3 26 -22 57 -41 134 -84 287 -269
367 -443 19 -43 42 -80 50 -83 9 -3 46 11 83 33 38 21 95 50 128 63 83 32 192
87 200 100 4 6 -4 32 -17 58 l-23 47 -59 1 c-79 2 -97 21 -89 99 7 63 -11 136
-38 161 -13 12 -29 15 -55 11 -20 -4 -45 -2 -55 4 -27 14 -49 62 -49 108 0 22
-5 52 -11 68 -26 69 -90 97 -109 48z"/>
<path d="M9185 6806 c-42 -13 -123 -55 -355 -184 -74 -42 -175 -98 -225 -125
-49 -27 -94 -52 -100 -57 -5 -4 -32 -20 -60 -35 -57 -31 -198 -109 -344 -190
-54 -30 -103 -55 -107 -55 -4 0 -38 18 -74 39 -104 62 -181 84 -270 78 -102
-8 -208 -37 -353 -98 -161 -67 -508 -237 -583 -284 -32 -20 -111 -90 -174
-155 -82 -84 -144 -137 -215 -183 -120 -78 -144 -102 -152 -150 -14 -91 39
-169 136 -202 28 -9 51 -20 51 -24 0 -14 -67 -69 -185 -153 -255 -180 -322
-226 -370 -253 -27 -15 -90 -54 -140 -86 -176 -115 -562 -341 -672 -395 -61
-29 -120 -64 -130 -77 -17 -22 -23 -23 -118 -19 -233 9 -385 -79 -542 -316
-43 -64 -105 -151 -139 -193 l-61 -75 79 -12 c44 -6 118 -25 166 -43 129 -46
196 -60 302 -61 80 -1 106 3 163 25 116 45 175 92 266 210 8 10 26 53 41 95
26 73 29 77 65 84 21 5 105 53 193 112 87 57 204 129 261 160 57 32 130 75
162 97 33 22 110 66 171 97 116 60 281 150 378 207 78 46 100 52 100 26 0 -34
39 -126 63 -149 57 -54 145 -65 240 -32 31 11 61 20 66 20 5 0 12 -26 16 -57
8 -68 34 -115 78 -141 47 -29 84 -34 167 -22 111 16 200 63 285 150 l69 72 19
-23 c38 -47 75 -136 101 -241 82 -334 209 -513 467 -657 99 -56 131 -81 244
-192 145 -142 408 -377 499 -445 72 -54 196 -128 203 -121 11 11 -65 107 -171
216 l-111 113 60 -33 c33 -18 78 -45 100 -59 52 -35 106 -63 111 -57 3 2 -53
56 -123 120 -70 63 -144 132 -163 152 -30 32 -20 27 72 -34 58 -39 109 -71
113 -71 4 0 58 -34 120 -75 63 -41 117 -75 121 -75 14 0 -42 53 -200 189 -88
75 -173 148 -190 164 l-31 27 50 -26 c49 -26 194 -107 265 -147 19 -11 64 -35
100 -54 65 -35 65 -35 34 -6 -16 15 -73 64 -124 108 -101 86 -255 232 -230
219 8 -4 49 -29 90 -55 79 -48 341 -189 354 -189 15 0 -7 21 -87 86 -171 137
-349 314 -220 218 79 -58 428 -243 439 -232 3 4 -27 29 -68 56 -93 63 -220
174 -267 232 -20 25 -27 38 -16 29 59 -47 381 -219 411 -219 8 0 -22 28 -68
62 -89 66 -223 190 -240 223 -10 19 -10 19 8 4 56 -46 371 -216 381 -205 2 2
-39 38 -91 80 -83 67 -126 111 -186 190 -18 23 -21 25 85 -45 67 -45 170 -100
221 -119 13 -5 -32 46 -101 114 -123 121 -167 182 -82 114 48 -39 160 -116
180 -124 19 -7 15 42 -7 84 -10 19 -16 36 -13 38 2 3 26 -13 53 -35 48 -40 72
-48 41 -13 -20 22 -22 37 -4 25 6 -4 35 -8 63 -10 l51 -2 -132 132 c-72 73
-154 163 -182 201 -106 144 -184 329 -217 522 -9 49 -19 103 -22 119 -44 237
-60 331 -85 505 -36 253 -46 305 -70 351 -46 92 -100 130 -267 188 -101 35
-234 100 -246 120 -3 5 28 33 70 62 204 145 320 226 444 312 473 328 510 361
510 449 0 88 -98 131 -215 94z m15 -119 c-224 -129 -744 -450 -838 -518 -30
-21 -61 -39 -69 -39 -7 0 -13 -5 -13 -12 0 -6 -3 -8 -7 -5 -3 4 -12 -1 -20
-11 -8 -9 -12 -12 -8 -5 3 7 -20 -2 -52 -21 -231 -131 -446 -256 -746 -433
-87 -51 -163 -93 -170 -93 -7 0 -25 11 -42 25 -35 29 -44 19 95 101 218 129
503 291 865 490 88 48 203 112 255 143 52 30 156 88 230 129 74 41 182 101
240 135 149 85 299 157 329 157 20 0 9 -10 -49 -43z m-1445 -544 c47 -16 85
-40 85 -52 0 -10 -208 -117 -213 -110 -2 2 -7 17 -12 33 -15 43 -30 42 -44 -3
-14 -47 -37 -66 -171 -141 -52 -29 -106 -61 -120 -70 -14 -10 -69 -41 -123
-70 l-99 -52 -41 16 c-22 9 -43 12 -46 7 -3 -4 -42 -16 -85 -24 -97 -20 -175
-64 -227 -129 -37 -47 -79 -141 -79 -178 0 -10 -5 -31 -10 -46 l-10 -27 -108
5 c-134 6 -166 19 -170 70 -3 34 0 39 40 64 24 15 61 39 83 53 22 14 105 89
185 166 126 122 158 147 250 197 58 31 128 66 157 77 28 11 102 45 162 76 187
93 317 140 441 159 36 5 108 -5 155 -21z m464 -67 c-18 -17 -202 -135 -329
-212 -85 -51 -195 -118 -245 -149 -152 -95 -316 -188 -321 -182 -3 3 7 14 23
25 38 26 560 338 648 387 39 22 103 61 144 87 62 41 96 59 80 44z m141 -336
c52 -23 138 -56 190 -72 135 -42 168 -58 197 -92 36 -42 40 -59 53 -192 10
-109 67 -462 104 -658 20 -104 13 -111 -9 -9 -10 43 -38 155 -63 248 -24 94
-51 199 -60 235 -15 66 -32 101 -32 65 1 -38 28 -241 58 -435 17 -107 33 -226
35 -265 l6 -70 -15 65 c-71 304 -145 542 -152 491 -2 -13 1 -42 7 -65 17 -71
40 -226 51 -357 6 -69 17 -170 25 -224 8 -54 15 -103 14 -109 -2 -30 -52 178
-74 308 -14 82 -35 174 -45 204 -21 60 -37 84 -25 37 21 -79 41 -202 36 -225
-4 -24 -5 -24 -19 10 -8 19 -18 46 -23 59 -20 52 -18 8 6 -97 29 -133 59 -331
51 -339 -8 -8 -23 36 -56 157 -25 96 -87 247 -96 237 -3 -2 5 -33 15 -68 23
-75 41 -177 41 -236 0 -41 0 -41 -52 -59 -29 -9 -81 -33 -116 -52 -44 -24 -89
-39 -145 -48 l-82 -13 100 4 c73 3 126 12 198 33 73 23 97 27 97 16 0 -32
-177 -108 -277 -119 -72 -9 -208 8 -298 36 -69 21 -280 154 -326 205 -14 16
-59 76 -99 134 -99 142 -228 284 -246 269 -7 -6 -18 -8 -24 -4 -25 15 -5 -8
74 -85 82 -80 163 -203 154 -232 -2 -6 -27 20 -55 58 -55 75 -110 134 -179
190 -24 20 -44 44 -44 53 0 9 18 35 41 56 45 44 154 203 145 212 -3 3 -41 -28
-84 -69 -79 -75 -143 -115 -204 -124 -31 -5 -42 1 -128 72 -206 170 -321 310
-336 410 -10 66 12 136 57 188 128 146 267 133 509 -47 155 -115 217 -173 259
-245 46 -78 159 -192 250 -250 157 -102 293 -114 452 -41 70 32 87 51 28 30
-51 -18 -44 -6 13 23 29 15 64 36 78 46 l25 20 -30 0 c-16 0 -63 -9 -104 -20
-41 -11 -95 -20 -120 -20 l-46 0 70 37 c96 50 145 83 121 83 -27 0 -196 -58
-233 -80 -71 -42 -19 30 80 110 44 36 126 109 181 163 56 55 115 106 131 115
17 8 24 17 18 19 -17 6 -58 -8 -227 -74 -101 -40 -146 -53 -167 -49 -65 13
-149 97 -149 148 0 19 4 16 25 -18 29 -48 124 -104 176 -104 l34 0 -45 27
c-74 44 -117 81 -134 118 -17 35 -17 36 13 78 54 78 269 255 295 243 6 -3 54
-24 106 -46z m-1742 -595 c9 -16 21 -33 27 -37 17 -12 -27 -48 -160 -130 -71
-44 -146 -90 -165 -103 -207 -133 -258 -165 -265 -165 -14 0 37 50 75 72 39
24 88 55 230 145 52 33 134 84 183 112 74 44 105 71 81 71 -10 0 -117 -67
-319 -198 -237 -155 -265 -177 -262 -204 4 -37 -21 -30 -42 11 -12 22 -21 45
-21 50 0 27 576 413 608 408 7 -1 21 -15 30 -32z m208 -359 c9 -23 -51 -129
-95 -169 -47 -42 -98 -70 -159 -87 -37 -9 -48 -9 -68 5 -33 21 -34 82 -1 113
19 18 286 148 310 151 4 1 10 -5 13 -13z m-893 -143 c51 -93 55 -108 32 -117
-10 -3 -29 15 -58 57 -68 95 -72 105 -51 128 9 10 20 19 23 19 4 0 28 -39 54
-87z m1116 13 c9 -10 9 -31 1 -82 -20 -130 -88 -228 -154 -222 -27 3 -31 7
-34 37 -5 45 11 80 82 188 60 91 82 107 105 79z m-1256 -72 c57 -90 62 -103
51 -122 -18 -28 -28 -22 -81 49 -53 71 -64 104 -41 127 19 19 30 10 71 -54z
m-139 -68 c11 -20 17 -37 15 -39 -19 -14 -160 -92 -224 -125 -98 -49 -264
-157 -271 -176 -3 -8 5 -28 17 -45 17 -23 20 -34 12 -42 -9 -9 -18 -5 -38 15
-23 23 -65 104 -65 126 0 4 24 24 53 44 74 51 471 284 477 281 3 -2 14 -19 24
-39z m3193 -48 c-3 -8 -6 -5 -6 6 -1 11 2 17 5 13 3 -3 4 -12 1 -19z m-3151
-67 c-9 -10 -67 -49 -129 -86 -62 -38 -154 -95 -205 -128 -52 -32 -96 -57 -98
-54 -13 13 100 90 381 259 63 38 80 41 51 9z m2079 -191 c64 -44 220 -117 290
-135 92 -25 263 -30 380 -12 67 11 103 12 110 6 18 -18 -22 -36 -113 -53 -264
-49 -495 13 -682 182 -53 49 -46 54 15 12z m-2765 -32 c0 -7 16 -39 35 -71 52
-86 44 -149 -11 -90 -32 34 -94 124 -94 137 0 13 32 35 53 36 9 0 17 -6 17
-12z m2940 -162 c142 -73 291 -96 463 -71 61 9 127 20 145 25 45 12 41 -7 -5
-27 -52 -21 -175 -42 -253 -43 -175 -1 -372 69 -480 170 l-45 42 55 -32 c30
-17 84 -46 120 -64z m-3083 38 c49 -50 49 -50 6 -141 -54 -114 -217 -221 -351
-230 -52 -4 -79 0 -122 16 -30 12 -65 21 -77 21 -12 0 -25 5 -29 11 -11 18
150 164 222 201 35 18 64 37 64 41 0 14 -80 -4 -154 -35 -39 -16 -78 -32 -86
-34 -26 -9 113 117 158 143 67 40 119 52 226 52 l99 1 44 -46z m2823 -56 c60
-102 102 -151 187 -219 98 -78 235 -144 342 -165 81 -16 157 -16 311 1 52 6
54 5 35 -10 -54 -43 -276 -63 -396 -35 -133 31 -320 146 -406 249 -25 31 -61
88 -79 126 -32 69 -51 125 -42 125 3 0 24 -33 48 -72z m-2763 -83 c-21 -148
-158 -278 -323 -306 -62 -11 -78 -10 -154 9 l-85 21 70 -4 c136 -9 286 46 376
138 48 49 99 136 99 169 0 10 5 18 11 18 8 0 10 -14 6 -45z"/>
<path d="M6966 5480 c10 -18 38 -49 61 -69 41 -37 42 -38 26 -62 -9 -13 -37
-46 -63 -74 -26 -27 -58 -67 -72 -87 -14 -21 -28 -35 -31 -31 -24 23 13 92 97
182 51 55 33 49 -73 -23 -46 -32 -88 -55 -95 -53 -14 5 -17 48 -4 65 7 8 7 12
-1 12 -17 0 -42 -46 -48 -89 -4 -31 0 -50 20 -84 28 -47 99 -117 120 -117 18
0 158 145 205 213 52 75 60 108 34 144 -25 34 -115 90 -161 99 l-34 7 19 -33z"/>
<path d="M7280 5143 c0 -5 -50 -61 -110 -126 -98 -106 -127 -147 -102 -147 4
0 33 26 63 58 96 98 185 222 159 222 -5 0 -10 -3 -10 -7z"/>
<path d="M7355 5109 c-16 -23 -84 -93 -150 -157 -119 -115 -120 -115 -81 -109
78 12 165 98 238 232 42 76 41 75 31 75 -4 0 -21 -19 -38 -41z"/>
<path d="M7700 4377 c79 -75 230 -157 288 -156 35 0 36 1 12 11 -101 41 -254
125 -297 163 -76 67 -78 54 -3 -18z"/>
<path d="M6778 4753 c-52 -62 -90 -115 -67 -95 15 13 41 43 58 67 32 45 37 61
9 28z"/>
<path d="M4450 3823 c-51 -18 -130 -57 -130 -64 0 -9 81 18 150 50 36 16 40
20 20 20 -14 0 -32 -3 -40 -6z"/>
<path d="M4614 3781 c-22 -10 -74 -24 -115 -30 -41 -6 -89 -14 -108 -17 -26
-4 -31 -8 -20 -15 39 -24 221 13 275 56 34 29 24 30 -32 6z"/>
<path d="M4640 6630 l-215 -5 -50 -32 c-54 -34 -122 -59 -185 -69 -22 -4 -40
-8 -40 -11 0 -2 10 -17 21 -33 33 -45 22 -90 -102 -398 -129 -320 -119 -297
-283 -727 -147 -389 -217 -571 -276 -715 -85 -211 -229 -567 -265 -655 -45
-112 -97 -207 -142 -263 -35 -43 -141 -122 -165 -122 -7 0 -4 -6 7 -13 24 -14
925 -21 925 -7 0 5 -21 26 -46 46 -44 36 -46 40 -41 79 3 22 20 74 37 115 58
139 181 462 187 491 3 16 6 30 7 31 0 1 197 4 436 8 499 7 428 -7 663 129 246
142 387 232 387 245 0 7 -11 50 -25 96 -14 46 -22 86 -19 89 3 3 95 8 203 9
l198 4 64 49 c35 27 101 75 146 107 45 31 82 62 83 67 0 6 -8 15 -19 22 -10 6
-30 35 -45 64 -37 75 -37 192 -1 265 31 63 64 94 199 188 127 87 326 278 326
310 -1 38 -56 163 -105 237 -159 238 -345 347 -675 394 -108 15 -691 18 -1190
5z m1120 -489 c131 -45 223 -130 255 -235 34 -111 28 -256 -15 -352 -23 -53
-84 -120 -130 -144 -77 -39 -142 -48 -335 -47 -169 2 -185 4 -198 21 -8 11
-35 85 -60 165 -26 80 -80 252 -122 382 -41 130 -75 238 -75 240 0 2 138 2
307 -1 287 -5 312 -7 373 -29z m-1152 -436 c17 -49 67 -211 112 -360 44 -148
97 -322 116 -385 20 -63 38 -123 41 -133 4 -17 -12 -18 -326 -15 -249 2 -331
6 -331 15 0 14 71 215 165 468 37 99 93 255 124 347 31 91 59 163 62 160 4 -4
21 -47 37 -97z"/>
<path d="M3240 6603 c-57 -10 -127 -34 -159 -54 l-34 -20 7 -68 c7 -80 -4 -96
-61 -93 -27 2 -41 -4 -68 -31 -49 -49 -58 -95 -32 -157 20 -47 20 -53 6 -78
-8 -15 -29 -36 -46 -47 -47 -29 -64 -72 -61 -151 l3 -67 -35 -12 c-45 -14 -70
-62 -70 -130 0 -34 7 -58 20 -75 36 -46 14 -130 -34 -130 -32 0 -46 -30 -46
-101 0 -66 2 -71 35 -105 52 -52 44 -118 -15 -126 -23 -3 -25 -7 -28 -65 -4
-92 7 -125 51 -146 34 -16 37 -21 37 -58 0 -29 -7 -46 -25 -65 -50 -50 -25
-186 41 -217 59 -29 72 -101 21 -125 -29 -14 -29 -12 -6 -103 13 -54 45 -89
79 -89 58 0 79 -74 35 -120 -25 -26 -25 -26 -9 -79 20 -68 52 -101 97 -101 28
0 39 -7 61 -38 14 -21 26 -50 26 -66 0 -16 4 -25 10 -21 16 10 70 122 92 190
11 33 43 106 71 162 l50 103 -47 118 c-125 313 -153 641 -91 1059 38 250 158
550 318 793 67 103 145 209 179 246 27 29 28 32 11 39 -10 4 -83 11 -163 16
-80 4 -156 10 -170 13 -14 2 -36 2 -50 -1z m140 -41 c0 -9 -21 -49 -47 -87
-272 -404 -412 -817 -429 -1265 -7 -160 12 -386 46 -546 25 -122 103 -361 149
-454 34 -72 40 -104 20 -124 -16 -17 -66 43 -84 102 -10 31 -31 89 -46 127
-26 65 -73 224 -105 355 -13 51 -24 138 -44 350 -8 89 1 256 25 473 24 208 97
437 216 672 85 170 176 321 227 377 36 40 72 50 72 20z"/>
<path d="M2662 6428 c5 -58 88 -76 108 -25 12 34 -15 57 -67 57 -44 0 -44 0
-41 -32z"/>
<path d="M1375 6271 c-74 -34 -105 -86 -105 -174 1 -74 29 -129 82 -161 87
-51 175 -47 240 12 64 58 81 119 58 204 -31 111 -166 169 -275 119z m150 -95
c34 -23 52 -85 34 -122 -19 -39 -76 -69 -113 -60 -84 21 -114 119 -56 178 27
27 36 30 71 25 22 -3 51 -12 64 -21z"/>
<path d="M1778 6158 c-29 -23 -30 -52 -4 -77 30 -28 66 -25 83 8 25 52 -34
104 -79 69z"/>
<path d="M1940 6051 c0 -10 6 -24 14 -30 11 -10 16 -8 21 8 3 12 3 25 0 31
-11 17 -35 11 -35 -9z"/>
<path d="M3543 5913 c-12 -2 -34 -18 -48 -34 -34 -42 -33 -89 3 -130 24 -26
36 -32 72 -32 36 0 48 6 72 32 49 55 32 128 -38 157 -18 8 -35 13 -36 13 -2
-1 -13 -4 -25 -6z"/>
<path d="M1871 5863 c-13 -3 -30 -11 -38 -19 -10 -10 -30 -12 -76 -7 -71 6
-130 -13 -180 -59 -51 -48 -24 -78 43 -47 19 9 49 15 65 14 17 -1 41 -3 55 -4
18 -2 5 -10 -45 -29 -58 -21 -83 -39 -146 -102 -81 -80 -109 -129 -134 -235
-53 -221 63 -482 257 -576 38 -19 51 -28 33 -25 -16 4 -63 23 -104 44 -59 29
-84 49 -119 94 -43 55 -61 65 -96 52 -14 -5 -14 -10 -1 -40 18 -43 92 -132
123 -148 13 -7 33 -30 45 -51 27 -47 37 -51 67 -25 32 28 52 22 62 -20 11 -43
32 -60 74 -60 69 0 64 41 64 -515 l0 -503 -24 -29 c-45 -54 -60 -95 -60 -168
-1 -83 21 -132 82 -187 44 -40 135 -78 186 -78 69 0 139 30 188 80 53 55 71
104 70 190 0 67 -17 111 -66 168 l-36 44 0 526 0 527 50 22 c46 20 50 24 50
57 0 37 27 66 63 66 11 0 34 16 51 35 30 32 32 40 28 88 l-4 53 41 19 c34 15
43 25 52 58 8 31 7 42 -5 55 -28 32 -29 65 -1 101 32 44 36 121 7 121 -10 0
-26 6 -35 13 -17 12 -17 15 -1 57 21 60 9 89 -55 132 -53 34 -82 80 -95 149
-7 40 -30 67 -41 49 -3 -5 -24 -10 -45 -10 -42 0 -60 18 -60 59 0 23 -30 46
-72 56 -23 6 -28 4 -28 -10 0 -16 -7 -17 -57 -11 -33 4 -63 13 -69 21 -11 15
-19 16 -63 8z m88 -204 c115 -26 248 -125 296 -219 47 -92 58 -248 26 -342
-26 -75 -53 -114 -122 -173 -70 -60 -118 -82 -209 -96 -176 -27 -336 63 -422
238 -43 86 -43 87 -42 192 0 84 5 118 22 161 24 62 103 156 158 191 83 51 198
70 293 48z m123 -1564 c-2 -340 -5 -435 -14 -420 -14 23 -15 817 -2 888 l8 42
5 -35 c4 -19 5 -233 3 -475z m-152 141 c0 -161 3 -361 7 -444 l6 -152 68 0
c37 0 71 -4 74 -10 7 -11 -15 -16 -94 -24 -36 -4 -64 -14 -87 -31 -19 -14 -34
-22 -34 -18 0 5 8 14 18 21 16 12 17 44 14 464 -2 248 -1 462 3 475 3 13 10
21 15 18 6 -4 10 -120 10 -299z m168 -788 c87 -82 2 -229 -117 -203 -74 16
-116 121 -70 179 46 58 137 70 187 24z"/>
<path d="M1775 5621 c-128 -47 -176 -89 -229 -201 -28 -59 -31 -74 -31 -165 0
-93 2 -105 33 -167 43 -89 109 -153 200 -196 70 -33 77 -35 155 -29 100 7 136
19 207 68 69 48 107 96 138 173 22 54 24 71 19 153 -7 120 -38 192 -113 263
-109 103 -263 144 -379 101z m240 -71 c154 -73 231 -209 205 -363 -27 -165
-145 -263 -331 -275 -70 -4 -81 -2 -128 24 -112 60 -195 195 -195 314 0 130
59 233 165 290 107 57 179 59 284 10z"/>
<path d="M1841 5527 c-7 -9 -27 -19 -44 -22 -91 -19 -149 -83 -182 -199 -18
-62 -10 -106 18 -106 10 0 14 -12 14 -38 0 -59 65 -172 99 -172 7 0 18 9 24
20 9 16 18 18 58 14 26 -3 77 1 115 9 l67 15 0 -24 c0 -16 6 -24 17 -24 24 0
110 97 124 138 11 32 9 37 -12 53 l-24 19 26 0 c18 0 28 6 32 20 8 32 -12 101
-45 157 -26 42 -45 59 -112 97 -92 51 -155 67 -175 43z m193 -83 c35 -43 28
-54 -16 -23 -38 26 -49 40 -42 51 10 16 29 6 58 -28z m-294 -24 c0 -13 -28
-25 -38 -16 -3 4 0 11 8 16 20 13 30 12 30 0z m199 -62 c57 -30 87 -80 77
-130 -9 -50 -40 -85 -87 -99 -141 -43 -230 138 -113 230 34 27 69 27 123 -1z"/>
<path d="M1835 4994 c-24 -25 -13 -39 34 -42 45 -3 81 17 81 45 0 20 -94 18
-115 -3z"/>
<path d="M1217 5772 c-23 -25 -21 -58 3 -82 24 -24 38 -25 68 -4 28 19 29 57
2 84 -25 25 -52 26 -73 2z"/>
<path d="M1447 5715 c-19 -19 -31 -85 -18 -98 6 -6 26 2 58 25 50 36 65 64 41
79 -21 14 -65 10 -81 -6z"/>
<path d="M1332 5528 c-24 -78 -24 -106 0 -122 31 -22 38 -20 38 12 0 15 11 50
24 79 l24 51 -21 6 c-43 11 -55 6 -65 -26z"/>
<path d="M3358 5437 c-75 -63 -61 -166 29 -203 41 -18 79 -10 115 24 84 78 39
202 -74 202 -30 0 -51 -7 -70 -23z"/>
<path d="M1280 5286 c0 -63 0 -64 31 -70 17 -3 35 -6 40 -6 5 0 9 32 9 70 l0
70 -40 0 -40 0 0 -64z"/>
<path d="M1317 5164 c-9 -9 -9 -107 -1 -128 4 -11 19 -16 46 -16 39 0 40 1 34
28 -10 39 -49 116 -62 119 -5 2 -13 0 -17 -3z"/>
<path d="M3358 4996 c-22 -16 -23 -55 -2 -63 9 -3 25 3 37 16 21 21 21 21 2
40 -17 17 -23 18 -37 7z"/>
<path d="M2438 4779 c-22 -12 -23 -47 -2 -77 17 -24 53 -29 72 -10 13 13 16
57 4 75 -11 17 -54 24 -74 12z"/>
<path d="M1298 4749 c-30 -17 -21 -71 14 -90 16 -9 25 -6 44 12 54 51 5 115
-58 78z"/>
<path d="M2416 4560 c-113 -34 -130 -208 -27 -277 100 -67 230 17 217 140 -12
109 -91 166 -190 137z m84 -100 c11 -11 20 -30 20 -43 0 -29 -34 -67 -60 -67
-28 0 -60 35 -60 67 0 57 60 83 100 43z"/>
<path d="M1395 4529 c-42 -12 -99 -62 -119 -103 -19 -41 -21 -125 -2 -169 7
-18 29 -47 49 -64 117 -103 300 -39 332 114 10 48 -19 135 -58 176 -47 50
-127 69 -202 46z m110 -93 c35 -15 65 -59 65 -96 0 -62 -70 -118 -131 -105
-73 16 -108 89 -74 155 30 58 76 73 140 46z"/>
<path d="M6195 4436 c-60 -31 -60 -31 -85 -109 -43 -134 -130 -221 -265 -263
-32 -10 -104 -17 -200 -20 l-150 -5 -60 -36 c-51 -31 -197 -126 -271 -177 -11
-8 -35 -43 -53 -78 -19 -34 -51 -87 -73 -116 l-39 -53 493 3 c479 4 495 5 568
27 101 30 252 103 317 151 122 93 226 224 283 359 l31 72 -23 60 -23 60 -47
-6 c-26 -3 -78 -1 -115 5 -80 13 -131 44 -182 113 -19 26 -38 46 -41 46 -3 -1
-32 -15 -65 -33z"/>
<path d="M7149 4145 c-3 -2 -50 -14 -105 -26 l-99 -21 -20 -41 c-32 -65 -76
-130 -132 -193 -29 -33 -85 -100 -125 -149 -79 -98 -120 -138 -211 -204 -32
-23 -75 -60 -95 -82 -20 -22 -65 -56 -100 -76 -35 -19 -93 -60 -130 -90 -84
-69 -177 -124 -267 -158 -38 -15 -108 -42 -155 -60 -113 -44 -244 -81 -388
-107 -171 -31 -504 -31 -682 0 -189 33 -282 61 -459 138 -184 80 -383 194
-491 282 l-95 77 -127 3 c-128 4 -155 -3 -108 -28 17 -9 20 -17 14 -44 -8 -47
8 -72 66 -101 60 -30 87 -32 95 -5 8 26 17 25 66 -6 l41 -26 -4 -54 -5 -54 46
-31 c67 -44 90 -47 116 -16 25 32 39 33 82 7 30 -18 33 -23 30 -67 -2 -47 -2
-47 48 -75 64 -35 78 -35 113 3 28 30 30 31 59 15 31 -15 43 -33 43 -64 1 -18
77 -72 102 -72 8 0 25 11 38 25 19 20 32 25 59 23 35 -3 42 -11 58 -63 7 -26
16 -32 58 -42 87 -20 105 -17 118 17 11 28 15 30 64 30 52 0 52 0 59 -35 7
-39 10 -40 113 -49 68 -6 91 3 91 35 0 24 30 39 79 39 38 0 41 -2 51 -40 l11
-40 77 0 c85 0 102 8 102 51 0 35 16 47 69 50 41 3 45 1 62 -30 9 -18 19 -34
21 -36 6 -7 141 25 155 36 7 6 13 23 13 38 0 38 11 49 56 57 36 5 43 3 61 -20
25 -31 36 -32 108 -5 59 22 75 40 75 88 0 28 6 34 55 58 l55 27 30 -32 c16
-18 32 -32 36 -32 13 0 120 69 139 90 13 14 19 34 18 60 -2 36 2 42 43 71 l45
30 30 -26 c22 -18 38 -24 53 -19 32 9 89 57 110 93 17 30 17 35 3 71 l-15 39
35 27 36 27 43 -24 44 -23 51 49 c61 60 79 93 68 120 -15 38 -9 62 24 99 24
28 41 38 70 40 27 2 43 10 54 27 9 13 31 41 50 61 29 34 33 43 30 92 -2 62 16
91 64 101 38 8 90 75 119 149 8 23 2 35 -11 21z"/>
<path d="M6767 4062 c-62 -158 -220 -343 -392 -459 -125 -84 -167 -103 -258
-119 -58 -10 -101 -26 -151 -54 -115 -65 -305 -155 -386 -183 -277 -96 -602
-130 -846 -88 -291 50 -490 122 -739 266 l-80 46 -75 -6 c-41 -3 -96 -8 -122
-11 l-46 -6 36 -33 c75 -66 278 -190 425 -257 272 -125 437 -165 722 -175 318
-10 543 20 796 106 183 62 226 81 297 129 31 22 93 59 137 82 44 24 111 72
150 107 38 35 99 81 135 103 80 47 293 249 342 322 19 29 59 91 88 138 30 47
62 94 72 106 17 20 17 20 -20 33 -20 8 -42 16 -48 18 -6 2 -23 -27 -37 -65z"/>
<path d="M2485 4053 c-76 -40 -105 -87 -105 -173 0 -133 83 -208 220 -198 110
8 180 82 180 190 0 57 -25 122 -56 150 -53 47 -178 63 -239 31z m170 -113 c49
-46 26 -135 -40 -160 -48 -18 -123 22 -139 76 -8 27 7 67 35 95 29 29 108 23
144 -11z"/>
<path d="M1510 3992 c-53 -16 -66 -77 -25 -117 30 -30 54 -31 89 -4 58 46 7
143 -64 121z"/>
<path d="M7162 3964 c-29 -20 -28 -40 6 -61 59 -36 102 -86 102 -118 0 -71
-96 -165 -169 -165 -11 0 -53 27 -92 60 -64 54 -74 59 -87 46 -24 -24 -18 -65
20 -141 46 -93 93 -128 181 -133 57 -4 68 -1 127 33 126 71 171 139 178 270 4
76 2 82 -26 124 -44 65 -103 101 -166 101 -30 0 -61 -6 -74 -16z"/>
<path d="M7444 3722 c-1 -99 -26 -168 -74 -202 -36 -26 -116 -60 -143 -61 -17
-1 -16 -3 8 -10 17 -5 62 -37 101 -71 129 -114 548 -501 587 -543 40 -43 42
-47 57 -144 21 -139 96 -232 217 -269 97 -30 154 -36 176 -20 17 13 14 19 -43
87 -66 79 -80 106 -80 152 0 60 72 155 136 179 36 14 63 -1 155 -84 96 -88
134 -109 160 -93 22 14 18 20 -76 100 -38 33 -112 100 -164 149 -52 49 -105
91 -118 94 -53 14 -162 -60 -215 -144 -24 -40 -37 -135 -29 -219 8 -77 -12
-70 -29 10 -13 58 -2 143 26 202 20 44 91 125 109 125 7 0 23 9 36 21 l24 20
-30 -6 c-32 -7 -95 -42 -95 -53 0 -4 -9 -13 -21 -20 -19 -12 -20 -12 -14 10 4
13 16 31 26 41 26 25 105 57 140 57 27 0 29 2 19 20 -6 12 -23 25 -37 31 -55
21 -128 79 -495 398 -160 138 -270 250 -293 299 -9 17 -17 32 -18 32 -1 0 -2
-39 -3 -88z m219 -249 c78 -70 147 -132 152 -138 6 -7 55 -52 110 -100 106
-95 143 -132 177 -180 20 -29 20 -29 -18 6 -21 19 -61 53 -89 75 -27 21 -106
91 -175 154 -69 63 -160 146 -202 185 -81 72 -126 125 -108 125 6 0 74 -57
153 -127z m-173 -82 c172 -141 520 -477 520 -502 0 -12 -26 9 -179 150 -58 53
-139 127 -180 165 -123 112 -251 239 -251 249 0 10 8 4 90 -62z"/>
<path d="M2676 3549 c-110 -27 -194 -109 -221 -218 -10 -36 -22 -79 -27 -94
-15 -41 -222 -231 -513 -472 -66 -55 -141 -119 -167 -142 -56 -49 -104 -66
-151 -52 -57 18 -165 12 -236 -13 -52 -18 -79 -35 -127 -83 -95 -93 -154 -234
-139 -331 l6 -44 47 39 c148 124 233 191 242 191 47 0 164 -95 191 -155 37
-81 31 -96 -91 -220 -133 -134 -132 -140 12 -133 112 5 185 34 250 100 70 70
97 118 114 199 14 69 19 78 77 137 84 86 295 276 447 402 69 57 153 129 188
159 84 74 98 81 135 68 51 -17 170 -2 228 29 69 38 127 98 156 161 43 94 40
213 -5 213 -20 0 -52 -29 -52 -47 0 -22 -82 -102 -121 -117 -49 -20 -108 -8
-146 30 -31 31 -63 101 -63 140 0 40 48 107 90 125 18 8 53 24 79 35 l46 22
-30 11 c-16 7 -40 22 -53 34 -12 11 -30 22 -40 24 -50 10 -91 11 -126 2z
m-103 -176 c-28 -61 -37 -171 -19 -223 7 -22 7 -23 -7 -10 -50 49 -36 165 31
268 24 37 22 25 -5 -35z m-14 -347 c12 -19 35 -46 52 -60 40 -34 36 -40 -11
-16 -76 39 -125 126 -106 189 l10 34 17 -56 c9 -31 26 -72 38 -91z m-99 64
c-12 -16 -29 -35 -39 -42 -10 -7 -58 -50 -107 -94 -49 -45 -141 -126 -204
-180 -63 -54 -161 -138 -216 -186 -91 -78 -103 -86 -115 -72 -15 19 10 45 184
191 51 43 163 137 248 209 235 199 299 244 249 174z m34 -236 c-33 -31 -104
-93 -159 -137 -55 -44 -149 -126 -210 -182 -104 -95 -226 -195 -239 -195 -3 0
-6 10 -6 23 0 16 16 35 52 62 29 22 105 85 168 140 241 210 413 344 444 345 5
0 -18 -25 -50 -56z m-888 -385 c71 -34 177 -143 198 -205 26 -75 32 -181 12
-228 -21 -50 -27 -44 -15 18 10 56 -8 161 -39 222 -25 50 -125 145 -181 174
-24 12 -68 24 -98 27 -83 9 -79 27 4 21 45 -3 89 -14 119 -29z"/>
<path d="M6882 3438 c-18 -18 -15 -45 8 -68 36 -36 79 5 60 55 -10 27 -47 34
-68 13z"/>
<path d="M6908 3243 c-16 -2 -28 -8 -28 -13 0 -5 -11 -17 -26 -26 -19 -13 -28
-14 -37 -5 -6 6 -33 11 -59 11 -52 0 -48 4 -62 -79 l-6 -34 42 7 c24 4 54 12
68 19 14 7 43 10 65 7 l40 -6 -37 -7 c-62 -13 -189 -83 -251 -137 -101 -91
-177 -257 -177 -386 0 -71 35 -179 76 -236 47 -64 133 -141 186 -165 24 -11
72 -24 108 -28 56 -7 61 -9 37 -16 -40 -11 -139 9 -211 41 -42 19 -78 46 -113
85 l-52 56 -30 -16 -31 -16 19 -37 c26 -51 55 -75 80 -67 12 3 21 11 21 16 0
5 7 9 16 9 13 0 15 -6 9 -27 -11 -39 -8 -61 10 -89 22 -34 59 -41 87 -15 32
31 50 23 65 -28 19 -67 46 -78 87 -36 34 34 49 32 68 -9 14 -29 22 -34 58 -38
37 -3 44 0 66 29 30 40 43 41 72 8 12 -14 26 -25 31 -25 15 0 71 50 71 63 1
33 17 41 59 27 35 -11 43 -11 65 3 13 9 27 31 31 49 9 41 22 58 46 58 10 0 36
19 58 43 30 31 41 50 41 75 0 24 11 44 42 78 40 43 41 47 31 82 -5 20 -12 43
-14 51 -2 8 8 21 24 28 24 13 27 19 27 69 0 45 -4 59 -23 77 -17 16 -26 38
-30 79 -4 31 -16 78 -28 105 -12 26 -26 68 -33 93 -11 45 -26 58 -91 77 -22 6
-31 16 -36 41 -4 18 -14 41 -24 51 -23 26 -75 47 -83 34 -11 -17 -51 4 -61 31
-8 20 -18 25 -56 28 -28 2 -49 -1 -53 -8 -4 -6 -21 -13 -39 -16 -27 -4 -33 -1
-38 19 -5 23 -15 25 -77 16z m223 -240 c82 -41 179 -139 217 -220 24 -52 27
-69 27 -168 0 -103 -2 -114 -31 -176 -43 -90 -167 -199 -255 -223 -77 -22
-178 -30 -209 -18 -22 9 -18 11 30 12 95 1 186 26 239 64 72 53 139 130 169
194 24 50 27 69 27 157 0 93 -2 105 -32 166 -39 80 -111 150 -191 187 -50 24
-69 27 -162 27 -98 0 -110 -2 -170 -32 -127 -63 -220 -189 -239 -323 -8 -56
-6 -75 14 -138 32 -100 67 -147 150 -200 39 -25 81 -54 95 -65 l25 -20 -29 7
c-42 10 -168 99 -210 147 -57 67 -79 137 -74 239 6 137 66 242 191 339 83 64
143 82 258 78 84 -2 103 -6 160 -34z m-44 -65 c70 -26 157 -108 193 -183 36
-74 35 -198 -2 -277 -75 -160 -276 -271 -407 -224 -24 9 -76 40 -115 70 -79
59 -125 129 -145 218 -13 56 6 174 38 236 25 50 106 123 173 156 69 35 180 36
265 4z m135 -738 c-25 -21 -90 -36 -197 -46 -96 -9 -77 4 25 17 45 5 106 18
134 29 65 23 66 23 38 0z"/>
<path d="M6867 2902 c-10 -10 -17 -35 -17 -56 0 -33 -8 -45 -71 -105 -49 -48
-76 -67 -89 -64 -26 7 -47 -63 -34 -115 9 -37 18 -45 136 -117 23 -14 38 -36
53 -75 16 -42 29 -59 56 -74 35 -19 36 -19 75 0 34 16 39 24 42 56 4 47 23 59
82 48 48 -9 60 -6 60 14 0 8 -11 14 -25 14 -14 0 -29 2 -32 6 -13 13 35 62 86
86 63 30 71 42 71 102 0 55 -18 78 -61 78 -40 0 -109 66 -147 140 -15 30 -39
60 -52 67 -39 20 -114 16 -133 -5z m126 -173 c40 -21 67 -52 73 -86 8 -44 -1
-75 -31 -111 -45 -54 -122 -54 -175 0 -88 87 24 253 133 197z"/>
<path d="M3315 3154 c-23 -23 -15 -63 17 -87 l28 -21 25 24 c30 28 32 49 5 78
-25 26 -52 28 -75 6z"/>
<path d="M6577 3122 c-10 -10 -17 -26 -17 -34 0 -9 -19 -25 -43 -37 -51 -25
-107 -94 -107 -133 0 -15 -4 -28 -10 -28 -32 0 -53 -117 -25 -140 19 -16 10
-30 -19 -30 -19 0 -25 -7 -29 -38 -4 -20 -4 -54 -1 -74 5 -29 13 -39 35 -47
16 -5 29 -7 29 -3 4 146 44 287 104 370 41 55 99 112 115 112 5 0 22 14 40 31
l32 30 -23 19 c-29 25 -60 25 -81 2z"/>
<path d="M1756 3038 c-17 -24 -21 -65 -8 -84 4 -6 17 -16 30 -23 37 -19 85 17
85 64 0 58 -76 88 -107 43z"/>
<path d="M3387 2940 c-12 -17 -27 -23 -66 -26 -75 -5 -121 -27 -121 -58 0 -24
-3 -26 -46 -26 -40 0 -51 -5 -80 -36 -41 -42 -41 -49 -9 -70 32 -21 32 -36 1
-28 -37 9 -64 -4 -91 -44 -31 -45 -31 -64 -4 -102 l22 -29 46 79 c90 154 214
228 397 237 64 4 108 2 120 -5 15 -9 9 -11 -36 -12 -130 0 -260 -58 -359 -159
-109 -111 -151 -213 -151 -368 0 -94 22 -173 71 -260 41 -72 168 -186 254
-229 l70 -35 -56 5 c-31 2 -72 14 -94 26 -59 33 -184 149 -205 190 -10 20 -26
42 -35 50 -14 12 -20 10 -42 -12 -30 -31 -27 -61 11 -105 24 -28 25 -28 54
-10 17 9 33 17 37 17 3 0 5 -22 4 -49 -2 -41 3 -57 26 -90 15 -23 34 -41 41
-41 7 0 24 14 38 32 l25 32 5 -25 c3 -13 7 -35 8 -49 2 -18 18 -34 58 -58 76
-45 99 -50 119 -24 14 20 20 21 54 11 21 -6 52 -7 68 -4 25 6 31 3 36 -14 7
-26 24 -26 108 0 58 18 68 24 81 54 16 40 53 54 88 35 41 -22 114 29 102 72
-7 29 56 98 84 91 13 -4 26 7 46 37 23 35 26 45 16 61 -27 43 -7 112 31 107
19 -3 23 4 31 44 7 38 6 55 -9 87 -12 28 -15 48 -10 68 5 15 8 54 9 85 1 54
-1 59 -36 91 -43 39 -44 44 -22 68 14 15 14 20 -1 55 -21 50 -43 74 -70 74
-31 0 -65 36 -65 69 0 16 -9 40 -21 55 -26 33 -82 63 -87 47 -2 -7 -13 -4 -29
9 -14 11 -35 20 -46 20 -11 0 -30 11 -42 24 -22 24 -58 37 -137 52 -34 6 -38
4 -38 -15 0 -20 -3 -21 -57 -14 -33 3 -63 13 -69 21 -9 13 -13 12 -27 -8z
m298 -251 c85 -41 181 -133 219 -210 52 -107 52 -274 0 -384 -42 -89 -103
-149 -202 -197 -84 -42 -87 -43 -186 -42 -140 1 -198 24 -289 115 -46 46 -77
88 -100 136 -30 64 -32 74 -32 183 0 111 1 117 36 191 43 90 82 136 151 180
86 55 141 70 243 66 77 -3 100 -9 160 -38z m235 -727 c0 -15 -73 -83 -120
-113 -54 -35 -191 -89 -222 -88 -13 0 7 11 44 24 100 35 201 91 250 139 50 50
48 48 48 38z"/>
<path d="M3404 2681 c-101 -26 -216 -129 -255 -229 -19 -46 -23 -76 -24 -162
0 -99 2 -109 33 -172 37 -76 123 -162 199 -199 42 -21 62 -24 158 -24 106 0
112 1 173 34 83 45 145 109 185 190 30 61 32 73 32 166 -1 81 -5 111 -24 158
-32 80 -115 168 -198 209 -58 28 -77 33 -157 35 -50 1 -105 -1 -122 -6z m263
-84 c96 -50 159 -135 183 -251 22 -107 -11 -214 -92 -298 -53 -54 -104 -82
-186 -103 -50 -13 -65 -13 -112 -1 -187 49 -308 220 -279 396 20 125 98 228
203 270 76 30 211 24 283 -13z"/>
<path d="M3440 2570 c-19 -11 -45 -19 -57 -20 -74 -1 -180 -191 -154 -275 9
-29 10 -29 16 -7 4 12 14 22 21 22 22 0 17 -37 -7 -54 -19 -13 -20 -18 -9 -53
40 -124 100 -173 152 -126 23 21 41 7 42 -33 1 -39 56 -72 93 -55 16 7 23 17
19 26 -3 8 -9 22 -12 30 -4 10 0 15 10 15 8 0 32 9 52 20 20 12 38 19 41 16 3
-2 -9 -12 -26 -21 -35 -18 -41 -35 -12 -35 27 0 106 54 136 94 29 38 55 97 55
126 0 18 -3 19 -21 9 -14 -7 -24 -8 -31 -1 -19 19 0 42 33 42 31 0 31 0 24 43
-17 102 -98 196 -203 236 -66 26 -116 26 -162 1z m4 -49 c3 -4 -5 -13 -18 -19
-13 -6 -41 -25 -61 -44 -30 -26 -36 -28 -26 -11 6 13 24 29 40 38 16 8 31 21
34 30 7 16 23 20 31 6z m234 -33 c5 -7 11 -27 14 -45 l4 -32 -32 37 c-18 20
-33 40 -34 45 0 12 37 8 48 -5z m-96 -96 c56 -32 74 -120 38 -179 -22 -36 -41
-48 -91 -58 -121 -23 -189 151 -93 236 36 32 93 32 146 1z"/>
<path d="M6191 2906 c-17 -31 -11 -66 16 -83 20 -14 24 -13 48 11 29 29 32 57
9 80 -23 24 -59 20 -73 -8z"/>
<path d="M5920 2829 c0 -6 12 -40 26 -75 14 -35 24 -72 22 -82 -5 -29 -106
-73 -158 -70 -37 3 -48 8 -66 36 -12 18 -25 51 -29 73 -4 22 -14 43 -22 46
-41 16 -102 -64 -103 -132 0 -88 56 -167 138 -194 29 -10 42 -20 42 -33 0 -10
36 -163 81 -340 l80 -322 -30 -66 c-17 -37 -31 -82 -31 -101 0 -61 38 -155 80
-198 37 -38 137 -98 147 -88 2 3 -8 51 -23 108 -31 119 -29 144 18 179 43 31
146 41 171 16 8 -9 30 -61 49 -116 18 -55 37 -100 43 -100 12 0 59 74 70 109
14 46 6 160 -14 199 -25 48 -83 106 -120 122 -17 6 -36 26 -44 43 -8 18 -47
158 -87 312 -40 154 -80 296 -90 316 -16 34 -16 37 0 47 25 15 53 113 45 156
-10 49 -58 122 -97 146 -35 21 -98 27 -98 9z m94 -364 c-19 -26 -41 -39 -83
-52 -31 -9 -59 -20 -64 -23 -4 -4 1 -29 12 -56 26 -65 119 -405 131 -480 12
-73 12 -84 1 -84 -14 0 -44 98 -106 345 -64 256 -73 285 -86 285 -5 0 -9 5 -9
10 0 6 14 10 30 10 39 0 133 33 168 59 37 28 37 26 6 -14z m82 -333 c30 -118
53 -216 51 -219 -3 -2 -8 4 -11 14 -41 141 -126 475 -125 495 1 21 26 -64 85
-290z m104 -337 l35 -13 -45 -2 c-97 -2 -170 -48 -231 -144 -21 -33 -39 -54
-39 -45 0 24 53 101 98 142 23 20 37 37 31 37 -20 0 3 20 34 29 44 13 76 12
117 -4z"/>
<path d="M7692 2788 c2 -12 10 -23 18 -23 22 0 19 39 -3 43 -15 3 -18 -1 -15
-20z"/>
<path d="M8965 2776 c-12 -60 56 -126 157 -152 45 -12 55 -12 75 1 27 18 27
18 9 53 -34 65 -136 131 -203 132 -29 0 -33 -4 -38 -34z"/>
<path d="M2710 2680 c-11 -11 -20 -29 -20 -40 0 -27 35 -60 63 -60 27 0 57 28
57 54 0 21 -44 66 -65 66 -8 0 -24 -9 -35 -20z"/>
<path d="M4221 2624 c-12 -15 -21 -33 -21 -41 0 -22 19 -52 40 -63 25 -13 76
10 85 39 8 27 -19 77 -47 85 -34 9 -35 8 -57 -20z"/>
<path d="M4750 2616 c-5 -5 -10 -20 -10 -32 0 -17 -8 -23 -37 -28 -61 -10 -83
-7 -83 9 0 23 -28 30 -48 12 -9 -8 -36 -24 -59 -36 -39 -19 -59 -51 -33 -51
39 0 -67 -154 -108 -156 -57 -3 -101 -58 -109 -138 -5 -48 -3 -56 11 -56 19 0
21 -32 5 -79 -9 -25 -16 -31 -40 -31 -28 0 -29 -1 -29 -52 0 -87 10 -128 31
-128 44 0 80 -106 39 -117 -25 -7 -25 -17 -1 -69 23 -49 67 -87 97 -81 17 3
34 -10 73 -54 45 -51 50 -61 40 -77 -19 -30 -6 -47 70 -98 67 -44 91 -49 91
-18 0 10 11 14 38 14 58 0 80 -10 91 -40 9 -26 14 -29 84 -35 100 -10 111 -6
115 31 3 29 7 32 60 44 55 12 56 12 79 -14 l22 -26 70 52 c69 52 70 53 55 77
-9 13 -12 26 -7 30 42 35 85 61 102 61 13 0 35 23 66 67 62 88 72 110 57 125
-7 7 -12 33 -12 59 0 41 3 48 24 53 30 8 46 50 46 127 l0 58 -35 7 c-42 8 -47
36 -14 78 25 31 21 71 -14 142 -16 33 -27 44 -44 44 -18 0 -25 7 -30 31 -4 21
-18 40 -45 58 -22 14 -55 39 -75 56 l-35 29 21 17 21 17 -42 35 c-51 41 -98
71 -101 66 -2 -2 -8 -16 -14 -30 -11 -25 -12 -26 -72 -16 -57 9 -60 11 -63 41
l-3 31 -117 1 c-68 0 -122 -4 -128 -10z m323 -214 c94 -43 179 -126 221 -216
77 -165 79 -299 5 -452 -43 -91 -117 -168 -209 -218 -291 -158 -670 95 -670
449 0 132 42 243 123 328 62 64 115 99 194 127 48 17 77 20 163 17 93 -3 113
-7 173 -35z"/>
<path d="M4779 2390 c-46 -12 -130 -61 -191 -112 -59 -49 -114 -155 -129 -247
-21 -135 20 -258 125 -377 59 -65 121 -100 230 -128 156 -41 376 66 455 222
33 65 54 168 48 244 -9 138 -118 298 -250 369 -56 30 -71 33 -157 36 -52 1
-111 -2 -131 -7z m248 -80 c87 -40 146 -98 191 -188 35 -72 37 -81 37 -172 0
-91 -2 -101 -35 -165 -51 -100 -131 -165 -245 -201 -103 -32 -141 -29 -233 17
-90 46 -146 104 -190 197 -35 72 -37 83 -37 172 0 85 3 101 29 155 41 84 117
156 191 184 126 48 191 48 292 1z"/>
<path d="M4847 2309 c-14 -8 -18 -20 -15 -47 3 -32 0 -37 -25 -46 -21 -8 -34
-6 -56 7 -38 22 -63 21 -92 -2 -21 -17 -25 -32 -34 -123 l-10 -103 -32 0 c-17
0 -34 -3 -38 -7 -14 -14 8 -30 36 -26 29 4 29 4 29 -46 0 -38 6 -61 24 -87 20
-28 23 -43 19 -81 -5 -44 -4 -47 25 -62 44 -23 78 -21 85 5 5 18 10 20 34 14
15 -3 64 -9 108 -12 51 -3 86 -11 97 -20 23 -21 57 -11 93 27 27 28 28 32 16
65 -11 31 -10 39 14 79 20 35 27 60 28 110 1 48 5 65 15 61 18 -7 15 5 -15 55
-14 25 -30 67 -34 93 -4 27 -13 55 -20 63 -15 18 -43 18 -59 -1 -30 -36 -120
-1 -120 47 0 17 -7 31 -19 38 -24 12 -31 12 -54 -1z m69 -220 c75 -19 117 -99
93 -180 -18 -60 -59 -89 -122 -89 -87 0 -147 55 -147 135 0 28 31 95 52 112
10 8 53 26 76 32 2 1 23 -4 48 -10z"/>
<path d="M5181 1985 c0 -11 4 -27 9 -35 9 -13 10 -13 9 0 0 8 -4 24 -9 35 l-9
20 0 -20z"/>
<path d="M4842 1633 c2 -40 7 -49 24 -51 28 -4 56 30 52 65 -3 25 -8 28 -41
31 l-38 3 3 -48z"/>
<path d="M5417 2605 c-37 -37 -30 -79 18 -105 32 -17 53 -7 74 35 12 24 11 30
-6 54 -23 31 -64 39 -86 16z"/>
<path d="M7708 2583 c-36 -37 -35 -57 1 -94 36 -35 64 -37 96 -4 47 46 25 107
-41 121 -23 4 -34 0 -56 -23z"/>
<path d="M2435 2543 c-74 -39 -106 -90 -106 -167 0 -89 44 -161 116 -192 90
-37 208 4 252 90 36 70 13 187 -49 242 -49 44 -155 58 -213 27z m156 -112 c42
-42 41 -99 -2 -135 -57 -48 -137 -28 -159 40 -33 98 87 169 161 95z"/>
<path d="M6362 2517 c-21 -9 -23 -16 -18 -46 3 -20 6 -44 6 -53 0 -10 9 -27
20 -38 23 -23 75 -28 67 -7 -3 7 -13 42 -22 78 -10 35 -21 67 -24 70 -3 4 -17
2 -29 -4z"/>
<path d="M2897 2473 c-3 -5 -8 -34 -11 -65 -7 -57 -7 -58 26 -77 39 -25 45
-18 52 60 2 30 7 62 11 72 6 14 1 17 -33 17 -23 0 -43 -3 -45 -7z"/>
<path d="M2903 2250 c-38 -15 -22 -98 26 -144 56 -54 71 -11 37 109 -12 42
-27 50 -63 35z"/>
<path d="M6374 2035 c-19 -29 -12 -57 23 -85 32 -25 38 -25 62 1 29 31 31 56
9 84 -26 34 -72 34 -94 0z"/>
<path d="M5673 2003 c-20 -7 -15 -38 8 -59 20 -18 21 -18 35 1 18 24 18 30 -2
49 -16 17 -21 18 -41 9z"/>
<path d="M6634 1900 c-46 -19 -68 -85 -44 -131 12 -22 60 -49 89 -49 11 0 33
12 50 26 60 50 33 146 -44 159 -17 2 -40 0 -51 -5z"/>
<path d="M5663 1798 c-18 -22 -20 -52 -6 -81 12 -23 20 -28 45 -25 20 2 38 13
51 31 l21 27 -21 28 c-22 30 -73 41 -90 20z"/>
<path d="M3995 1623 c-48 -51 -15 -133 52 -133 90 0 115 120 32 149 -46 16
-55 14 -84 -16z"/>
<path d="M5582 1574 c-7 -3 -19 -19 -27 -34 -37 -72 62 -134 120 -75 30 29 32
65 6 89 -19 18 -77 29 -99 20z"/>
</g>
</svg>
